<svg width="400" height="68" viewBox="0 0 400 68" fill="none" xmlns="http://www.w3.org/2000/svg">
<g clip-path="url(#clip0_910_3681)">
<rect width="400" height="68" fill="#FFF4CC"/>
<path d="M35.8346 45.8464C22.0478 47.9107 30.6106 65.687 35.9385 72.2978C57.6411 99.2072 92.9468 95.9861 103.475 61.1325C105.288 55.1241 104.928 43.6775 106.686 39.7255C107.397 38.127 109.162 36.2152 110.967 36.6731C114.042 37.4523 136.536 55.3168 140.146 58.6905C159.916 77.1415 132.143 112.317 116.95 125.048C70.2697 164.151 -8.64102 107.441 11.1126 51.5817C18.653 30.255 40.5713 5.53855 64.9579 8.19735C98.7539 11.8843 100.583 52.9633 79.9109 73.0369C69.6946 82.9572 65.7886 69.1892 60.8442 62.9238C55.8279 56.5699 44.4693 44.5611 35.8346 45.8544V45.8464Z" fill="#F2C62A"/>
<path d="M-51.1654 -76.1536C-64.9522 -74.0893 -56.3894 -56.313 -51.0615 -49.7022C-29.3589 -22.7928 5.94683 -26.0139 16.4747 -60.8675C18.2879 -66.8759 17.9284 -78.3225 19.6857 -82.2745C20.3966 -83.873 22.1619 -85.7848 23.9671 -85.3269C27.0424 -84.5477 49.5358 -66.6832 53.1463 -63.3095C72.9159 -44.8585 45.1426 -9.6835 29.9499 3.04824C-16.7303 42.1512 -95.641 -14.5593 -75.8874 -70.4183C-68.347 -91.745 -46.4287 -116.461 -22.0421 -113.803C11.7539 -110.116 13.5831 -69.0367 -7.08913 -48.9631C-17.3054 -39.0428 -21.2114 -52.8108 -26.1558 -59.0762C-31.1721 -65.4301 -42.5307 -77.4389 -51.1654 -76.1456V-76.1536Z" fill="#F2C62A"/>
<path d="M367.016 91.4113C378.598 89.0801 370.593 74.4395 365.802 69.0863C346.287 47.2968 316.541 51.5229 309.113 81.3946C307.834 86.5441 308.626 96.1915 307.307 99.6027C306.773 100.982 305.36 102.672 303.813 102.362C301.177 101.836 281.377 87.7152 278.178 85.0214C260.659 70.2896 282.669 39.4105 294.987 28.0143C332.833 -6.98764 402.039 37.517 387.697 85.5145C382.223 103.84 364.723 125.64 343.968 124.436C315.206 122.767 311.909 88.1673 328.551 70.3394C336.776 61.529 340.669 72.9847 345.12 78.0627C349.637 83.2123 359.762 92.8648 367.016 91.4045L367.016 91.4113Z" fill="#F2C62A"/>
<path d="M392.016 -19.0189C403.597 -21.3501 395.593 -35.9906 390.802 -41.3439C371.286 -63.1334 341.54 -58.9072 334.113 -29.0356C332.834 -23.8861 333.625 -14.2387 332.306 -10.8275C331.773 -9.44773 330.36 -7.75853 328.812 -8.06798C326.176 -8.59446 306.377 -22.715 303.177 -25.4088C285.658 -40.1406 307.669 -71.0197 319.986 -82.4159C357.832 -117.418 427.038 -72.9132 412.697 -24.9157C407.222 -6.5906 389.722 15.2098 368.968 14.0063C340.205 12.3365 336.908 -22.2629 353.551 -40.0907C361.776 -48.9012 365.668 -37.4455 370.12 -32.3675C374.636 -27.2179 384.762 -17.5653 392.015 -19.0256L392.016 -19.0189Z" fill="#F2C62A"/>
<path d="M296.636 -22.8538C301.98 -29.7963 290.375 -34.0904 285.088 -34.753C263.562 -37.4432 248.977 -20.5974 259.364 -0.269239C261.156 3.2344 266.295 8.24654 267.218 10.7972C267.591 11.829 267.623 13.4618 266.606 14.042C264.875 15.0308 246.924 16.7697 243.822 16.8202C226.849 17.1068 224.13 -10.8845 225.474 -23.2568C229.608 -61.2642 289.993 -70.0564 305.336 -36.221C311.194 -23.3035 312.016 -2.58732 299.819 6.8432C282.914 19.9115 264.225 2.15912 264.857 -15.9173C265.17 -24.8507 272.924 -20.3363 277.887 -19.6626C282.921 -18.9802 293.285 -18.5092 296.632 -22.8574L296.636 -22.8538Z" fill="#F2C62A"/>
<path d="M120.12 10.3969C121.214 19.0897 132.478 13.965 136.698 10.7124C153.875 -2.5374 152.366 -24.7685 130.675 -31.8855C126.936 -33.1113 119.758 -33.0503 117.306 -34.2114C116.315 -34.6811 115.142 -35.8178 115.455 -36.9456C115.988 -38.8667 127.508 -52.7436 129.674 -54.9637C141.523 -67.1206 163.166 -49.1626 170.925 -39.4328C194.757 -9.5379 158.078 39.2302 123.357 26.0138C110.101 20.9687 94.9275 6.84028 96.9457 -8.445C99.7441 -29.6281 125.514 -30.1862 137.796 -16.9076C143.865 -10.3453 135.181 -8.08906 131.183 -5.07237C127.128 -2.01179 119.439 4.95263 120.125 10.397L120.12 10.3969Z" fill="#F2C62A"/>
<g clip-path="url(#clip1_910_3681)">
<path d="M226.629 46.5166C231.555 45.9128 235.059 41.43 234.455 36.5038C233.852 31.5776 229.369 28.0736 224.443 28.6774C219.516 29.2811 216.012 33.764 216.616 38.6902C217.22 43.6163 221.703 47.1203 226.629 46.5166Z" fill="#4F30F5"/>
<path d="M226.262 43.5188C229.532 43.118 231.858 40.1417 231.458 36.8712C231.057 33.6006 228.081 31.2743 224.81 31.6751C221.539 32.076 219.213 35.0522 219.614 38.3227C220.015 41.5933 222.991 43.9196 226.262 43.5188Z" fill="#F3F5F8"/>
<path d="M210.985 111.637L204.935 112.378C193.048 113.835 182.697 104.272 183.208 92.3085L184.002 73.7349C184.408 64.2624 191.602 56.4738 201.012 55.3205C210.422 54.1672 219.285 59.9879 221.966 69.0821L227.222 86.9142C230.607 98.4022 222.872 110.18 210.985 111.637Z" fill="#4F30F5"/>
<path d="M176.011 52.7203C180.937 52.1165 184.441 47.6336 183.838 42.7075C183.234 37.7813 178.751 34.2773 173.825 34.8811C168.899 35.4848 165.395 39.9677 165.998 44.8938C166.602 49.82 171.085 53.324 176.011 52.7203Z" fill="#4F30F5"/>
<path d="M175.644 49.7225C178.914 49.3216 181.241 46.3454 180.84 43.0749C180.439 39.8043 177.463 37.478 174.192 37.8788C170.922 38.2796 168.595 41.2559 168.996 44.5264C169.397 47.797 172.373 50.1233 175.644 49.7225Z" fill="#F3F5F8"/>
<path d="M203.615 68.3452C218.884 66.4739 229.744 52.5792 227.873 37.3105C226.002 22.0418 212.107 11.1811 196.838 13.0524C181.57 14.9237 170.709 28.8185 172.58 44.0872C174.452 59.3559 188.346 70.2166 203.615 68.3452Z" fill="#4F30F5"/>
<path d="M219.681 30.4351C218.799 24.1893 213.119 19.6699 206.836 20.2205C204.58 20.4173 202.534 21.2258 200.841 22.4627C199.221 23.6451 197.082 23.9073 195.225 23.151C193.284 22.3595 191.103 22.0689 188.867 22.4227C182.636 23.4058 178.216 29.1631 178.868 35.4372C179.098 37.65 179.915 39.6527 181.147 41.3117C181.882 42.3015 182.035 43.6065 181.562 44.7444C180.833 46.4974 180.514 48.4426 180.709 50.4434C181.363 57.14 187.398 61.9477 194.037 61.134C195 61.0159 195.922 60.7859 196.791 60.4598C200.465 59.0793 204.433 58.5929 208.33 59.0456C209.252 59.1521 210.202 59.1528 211.165 59.0348C217.805 58.221 222.499 52.1 221.517 45.4419C221.225 43.4531 220.443 41.6428 219.313 40.1176C218.579 39.1278 218.413 37.8243 218.886 36.6864C219.68 34.779 219.99 32.6366 219.68 30.4353L219.681 30.4351Z" fill="#F3F5F8"/>
<path d="M200.136 39.9586C200.801 39.877 201.275 39.2715 201.193 38.606C201.112 37.9406 200.506 37.4673 199.841 37.5488C199.175 37.6304 198.702 38.2359 198.783 38.9014C198.865 39.5668 199.471 40.0401 200.136 39.9586Z" fill="#101010"/>
<path d="M193.551 37.0398C194.217 36.9582 194.69 36.3527 194.609 35.6872C194.527 35.0218 193.922 34.5485 193.256 34.63C192.591 34.7116 192.117 35.3172 192.199 35.9826C192.28 36.648 192.886 37.1213 193.551 37.0398Z" fill="#4F30F5"/>
<path d="M205.822 35.536C206.487 35.4545 206.96 34.8489 206.879 34.1835C206.797 33.518 206.192 33.0447 205.526 33.1263C204.861 33.2078 204.387 33.8134 204.469 34.4788C204.551 35.1442 205.156 35.6176 205.822 35.536Z" fill="#4F30F5"/>
<path d="M195.524 66.3101L176.444 80.6815C174.372 82.2422 171.424 81.8273 169.863 79.7552C168.302 77.6832 168.717 74.7354 170.789 73.1747L182.364 64.4565C186.507 61.3361 192.405 62.1663 195.525 66.3091L195.524 66.3101Z" fill="#4F30F5"/>
<path d="M198.914 45.2735C196.561 45.8595 194.17 44.4221 193.585 42.069C193.457 41.5545 193.771 41.0347 194.284 40.9068C194.797 40.7789 195.318 41.0923 195.446 41.6051C195.776 42.9324 197.124 43.7413 198.45 43.4113C198.964 43.2832 199.484 43.5968 199.612 44.1097C199.74 44.6225 199.427 45.144 198.914 45.2719L198.914 45.2735Z" fill="#101010"/>
<path d="M233.734 60.2255C240.604 60.1609 241.784 51.9807 238.023 47.5563C236.165 45.3706 235.107 48.0454 233.99 49.1988C232.855 50.3705 229.873 52.5103 228.329 53.3648" fill="#4F30F5"/>
<path d="M238.208 53.2655C239.466 55.5344 238.645 58.3959 236.376 59.6534L215.483 71.2331C212.969 66.6968 214.611 60.9717 219.147 58.4574L231.822 51.4327C234.091 50.1752 236.952 50.9959 238.21 53.2647L238.208 53.2655Z" fill="#4F30F5"/>
<path d="M195.171 15.7678C190.709 12.81 193.409 6.9643 197.744 5.66709C199.887 5.02713 199.442 7.22347 199.684 8.4526C199.928 9.69935 200.97 12.364 201.616 13.5777" fill="#4F30F5"/>
<path d="M189.791 17.5688C186.7 15.5212 188.57 11.4718 191.571 10.5738C193.055 10.1301 192.747 11.6511 192.915 12.5022C193.083 13.3533 193.805 15.2099 194.253 16.0511" fill="#4F30F5"/>
</g>
<path fill-rule="evenodd" clip-rule="evenodd" d="M246.088 26H257.443C258.853 26 260.017 26 260.965 26.0751C261.95 26.1532 262.855 26.3208 263.705 26.7412C265.023 27.3931 266.095 28.4334 266.767 29.7129C267.2 30.5379 267.373 31.4163 267.453 32.3719C267.531 33.2919 267.531 34.4213 267.531 35.7898V58.3C267.531 58.9394 267.161 59.5247 266.574 59.8149C265.987 60.105 265.281 60.0509 264.749 59.6748L261.012 57.0378L257.677 59.6275C257.06 60.106 256.19 60.1254 255.552 59.6748L251.765 57.002L247.978 59.6748C247.34 60.1254 246.47 60.106 245.854 59.6275L242.518 57.0378L238.782 59.6748C238.249 60.0509 237.544 60.105 236.957 59.8149C236.37 59.5247 236 58.9394 236 58.3V35.7898C236 34.4213 236 33.2919 236.077 32.3719C236.158 31.4163 236.331 30.5379 236.764 29.7129C237.435 28.4334 238.507 27.3931 239.826 26.7412C240.676 26.3208 241.581 26.1532 242.566 26.0751C243.514 26 244.677 26 246.088 26Z" fill="#F3F5F8"/>
<path d="M253.149 33.4762H242.376C242.016 33.4762 241.725 33.1657 241.725 32.7823C241.725 32.399 242.016 32.0884 242.376 32.0884H253.149C253.509 32.0884 253.801 32.399 253.801 32.7823C253.801 33.1657 253.509 33.4762 253.149 33.4762Z" fill="#4F30F5"/>
<path d="M261.195 33.4762H256.854C256.494 33.4762 256.202 33.1657 256.202 32.7823C256.202 32.399 256.494 32.0884 256.854 32.0884H261.195C261.555 32.0884 261.847 32.399 261.847 32.7823C261.847 33.1657 261.555 33.4762 261.195 33.4762Z" fill="#4F30F5"/>
<path d="M253.149 38.3334H242.376C242.016 38.3334 241.725 38.0229 241.725 37.6395C241.725 37.2561 242.016 36.9456 242.376 36.9456H253.149C253.509 36.9456 253.801 37.2561 253.801 37.6395C253.801 38.0229 253.509 38.3334 253.149 38.3334Z" fill="#4F30F5"/>
<path d="M261.195 38.3334H256.854C256.494 38.3334 256.202 38.0229 256.202 37.6395C256.202 37.2561 256.494 36.9456 256.854 36.9456H261.195C261.555 36.9456 261.847 37.2561 261.847 37.6395C261.847 38.0229 261.555 38.3334 261.195 38.3334Z" fill="#4F30F5"/>
<path d="M253.149 43.1905H242.376C242.016 43.1905 241.725 42.88 241.725 42.4966C241.725 42.1132 242.016 41.8027 242.376 41.8027H253.149C253.509 41.8027 253.801 42.1132 253.801 42.4966C253.801 42.88 253.509 43.1905 253.149 43.1905Z" fill="#4F30F5"/>
<path d="M261.195 43.1905H256.854C256.494 43.1905 256.202 42.88 256.202 42.4966C256.202 42.1132 256.494 41.8027 256.854 41.8027H261.195C261.555 41.8027 261.847 42.1132 261.847 42.4966C261.847 42.88 261.555 43.1905 261.195 43.1905Z" fill="#4F30F5"/>
<path d="M253.149 48.0477H242.376C242.016 48.0477 241.725 47.7372 241.725 47.3538C241.725 46.9704 242.016 46.6599 242.376 46.6599H253.149C253.509 46.6599 253.801 46.9704 253.801 47.3538C253.801 47.7372 253.509 48.0477 253.149 48.0477Z" fill="#4F30F5"/>
<path d="M261.195 48.0477H256.854C256.494 48.0477 256.202 47.7372 256.202 47.3538C256.202 46.9704 256.494 46.6599 256.854 46.6599H261.195C261.555 46.6599 261.847 46.9704 261.847 47.3538C261.847 47.7372 261.555 48.0477 261.195 48.0477Z" fill="#4F30F5"/>
<path d="M253.149 52.9048H242.376C242.016 52.9048 241.725 52.5943 241.725 52.2109C241.725 51.8275 242.016 51.517 242.376 51.517H253.149C253.509 51.517 253.801 51.8275 253.801 52.2109C253.801 52.5943 253.509 52.9048 253.149 52.9048Z" fill="#4F30F5"/>
<path d="M261.195 52.9048H256.854C256.494 52.9048 256.202 52.5943 256.202 52.2109C256.202 51.8275 256.494 51.517 256.854 51.517H261.195C261.555 51.517 261.847 51.8275 261.847 52.2109C261.847 52.5943 261.555 52.9048 261.195 52.9048Z" fill="#4F30F5"/>
</g>
<defs>
<clipPath id="clip0_910_3681">
<rect width="400" height="68" fill="white"/>
</clipPath>
<clipPath id="clip1_910_3681">
<rect width="82.1868" height="119.49" fill="white" transform="translate(152.092 10.1313) rotate(-6.98731)"/>
</clipPath>
</defs>
</svg>
