<svg width="20" height="20" viewBox="0 0 20 20" fill="none" xmlns="http://www.w3.org/2000/svg">
<path d="M3.33342 2.49984C3.33342 2.0396 2.96032 1.6665 2.50009 1.6665C2.03985 1.6665 1.66675 2.0396 1.66675 2.49984L1.66675 16.1931C1.66673 16.4034 1.6667 16.6082 1.68087 16.7817C1.69644 16.9722 1.73316 17.197 1.84841 17.4232C2.0082 17.7368 2.26316 17.9917 2.57677 18.1515C2.80295 18.2668 3.02773 18.3035 3.21823 18.3191C3.3917 18.3332 3.59653 18.3332 3.80685 18.3332L17.5001 18.3332C17.9603 18.3332 18.3334 17.9601 18.3334 17.4998C18.3334 17.0396 17.9603 16.6665 17.5001 16.6665H3.83342C3.58631 16.6665 3.4511 16.6659 3.35395 16.6579L3.34296 16.657L3.34201 16.646C3.33407 16.5488 3.33342 16.4136 3.33342 16.1665V2.49984Z" fill="#542EFF"/>
<path d="M17.2749 7.23627C17.5895 6.90042 17.5724 6.37306 17.2365 6.05839C16.9007 5.74371 16.3733 5.76088 16.0586 6.09674L12.8793 9.49013L10.2769 8.13887C10.2715 8.13607 10.2656 8.13294 10.2592 8.12953C10.2549 8.12727 10.2505 8.12489 10.2458 8.12239C10.1343 8.06286 9.90285 7.93922 9.6449 7.91598C9.42841 7.89648 9.21058 7.93376 9.0129 8.02415C8.77736 8.13186 8.60017 8.32544 8.51486 8.41865C8.5124 8.42134 8.51001 8.42395 8.50771 8.42647C8.5016 8.43313 8.49603 8.43918 8.49102 8.44453L5.2253 11.9301C4.91062 12.2659 4.9278 12.7933 5.26365 13.108C5.59951 13.4226 6.12686 13.4055 6.44154 13.0696L9.62092 9.67622L12.2233 11.0275C12.2323 11.0321 12.2427 11.0377 12.2544 11.044C12.3658 11.1035 12.5973 11.2271 12.8553 11.2504C13.0718 11.2699 13.2896 11.2326 13.4873 11.1422C13.7228 11.0345 13.9 10.8409 13.9853 10.7477C13.9943 10.7379 14.0023 10.7292 14.0091 10.7218L17.2749 7.23627Z" fill="#542EFF"/>
</svg>
