<svg width="35" height="34" viewBox="0 0 35 34" fill="none" xmlns="http://www.w3.org/2000/svg">
<path d="M16.3314 3.24843C16.8847 2.69519 17.7817 2.69519 18.3349 3.24843L25.4182 10.3318C25.9715 10.885 25.9715 11.782 25.4182 12.3352C24.865 12.8885 23.968 12.8885 23.4148 12.3352L18.7498 7.6703L18.7498 21.2502C18.7498 22.0326 18.1156 22.6668 17.3332 22.6668C16.5508 22.6668 15.9165 22.0326 15.9165 21.2502L15.9165 7.6703L11.2516 12.3352C10.6983 12.8885 9.80135 12.8885 9.2481 12.3352C8.69486 11.782 8.69486 10.885 9.2481 10.3318L16.3314 3.24843Z" fill="#542EFF"/>
<path d="M4.58317 19.8335C5.36558 19.8335 5.99984 20.4678 5.99984 21.2502V22.9502C5.99984 24.1637 6.00094 24.9886 6.05304 25.6262C6.10378 26.2473 6.19576 26.5649 6.30865 26.7865C6.5803 27.3196 7.01374 27.753 7.54687 28.0247C7.76843 28.1376 8.08605 28.2296 8.70714 28.2803C9.34477 28.3324 10.1697 28.3335 11.3832 28.3335H23.2832C24.4967 28.3335 25.3216 28.3324 25.9592 28.2803C26.5803 28.2296 26.8979 28.1376 27.1195 28.0247C27.6526 27.753 28.0861 27.3196 28.3577 26.7865C28.4706 26.5649 28.5626 26.2473 28.6133 25.6262C28.6654 24.9886 28.6665 24.1637 28.6665 22.9502V21.2502C28.6665 20.4678 29.3008 19.8335 30.0832 19.8335C30.8656 19.8335 31.4998 20.4678 31.4998 21.2502V23.0087C31.4999 24.1491 31.4999 25.0902 31.4372 25.8569C31.3722 26.6532 31.2325 27.3852 30.8822 28.0728C30.3389 29.139 29.472 30.0059 28.4058 30.5492C27.7182 30.8995 26.9862 31.0392 26.1899 31.1042C25.4232 31.1669 24.4821 31.1668 23.3417 31.1668H11.3247C10.1843 31.1668 9.24311 31.1669 8.47642 31.1042C7.68011 31.0392 6.94812 30.8995 6.26056 30.5492C5.19431 30.0059 4.32742 29.139 3.78414 28.0728C3.43381 27.3852 3.29417 26.6532 3.22911 25.8569C3.16647 25.0902 3.16649 24.1491 3.1665 23.0087V21.2502C3.1665 20.4678 3.80077 19.8335 4.58317 19.8335Z" fill="#542EFF"/>
</svg>
