<svg width="34" height="34" viewBox="0 0 34 34" fill="none" xmlns="http://www.w3.org/2000/svg">
<path d="M27.6824 8.04004L27.5284 8.61455C23.4499 3.48089 16.1197 1.96845 10.2707 5.34536C6.39545 7.58276 4.05471 11.4576 3.61529 15.5858C3.53248 16.3638 4.09605 17.0617 4.87406 17.1445C5.65207 17.2273 6.3499 16.6637 6.43271 15.8857C6.7804 12.6193 8.62957 9.56454 11.6874 7.7991C16.1582 5.21788 21.7252 6.25513 24.9971 10.0022L24.5099 9.87164C23.7542 9.66914 22.9774 10.1176 22.7749 10.8734C22.5724 11.6291 23.0209 12.4059 23.7766 12.6084L27.647 13.6455C28.4028 13.848 29.1796 13.3995 29.3821 12.6438L30.4191 8.77336C30.6216 8.01762 30.1732 7.24081 29.4174 7.03831C28.6617 6.83581 27.8849 7.2843 27.6824 8.04004Z" fill="#72788A"/>
<path d="M29.1256 16.8565C29.9036 16.9394 30.4671 17.6372 30.3843 18.4152C29.9449 22.5435 27.6042 26.4183 23.7289 28.6557C17.8798 32.0326 10.5495 30.5201 6.47098 25.3862L6.31715 25.9603C6.11465 26.716 5.33784 27.1645 4.5821 26.962C3.82635 26.7595 3.37786 25.9827 3.58036 25.227L4.61743 21.3566C4.81993 20.6008 5.59675 20.1523 6.35249 20.3548L10.2229 21.3919C10.9786 21.5944 11.4271 22.3712 11.2246 23.127C11.0221 23.8827 10.2453 24.3312 9.48957 24.1287L9.00174 23.998C12.2736 27.7457 17.8411 28.7834 22.3122 26.2019C25.37 24.4365 27.2192 21.3818 27.5669 18.1153C27.6497 17.3373 28.3476 16.7737 29.1256 16.8565Z" fill="#72788A"/>
<path d="M18.4165 10.6254C18.4165 9.84295 17.7822 9.20868 16.9998 9.20868C16.2174 9.20868 15.5832 9.84295 15.5832 10.6254V17.0004C15.5832 17.498 15.8443 17.9591 16.271 18.2151L19.8126 20.3401C20.4835 20.7427 21.3537 20.5251 21.7563 19.8542C22.1588 19.1833 21.9413 18.3131 21.2704 17.9106L18.4165 16.1982V10.6254Z" fill="#72788A"/>
</svg>
