<svg width="40" height="40" viewBox="0 0 40 40" fill="none" xmlns="http://www.w3.org/2000/svg">
<path fill-rule="evenodd" clip-rule="evenodd" d="M14.5978 1.66669H25.4022C26.7438 1.66667 27.8511 1.66665 28.753 1.74035C29.6899 1.81689 30.551 1.98116 31.3599 2.39331C32.6144 3.03247 33.6342 4.05234 34.2734 5.30675C34.6855 6.11565 34.8498 6.97682 34.9263 7.91365C35 8.81563 35 9.92289 35 11.2645V16.2764C35 17.0002 35 17.3622 34.8824 17.5594C34.7645 17.7569 34.6442 17.8531 34.4256 17.9246C34.2073 17.996 33.7916 17.9022 32.9603 17.7146C32.8125 17.6812 32.6636 17.6517 32.5136 17.6259C30.4776 17.2767 28.3837 17.6593 26.6027 18.706C24.8218 19.7527 23.4688 21.3959 22.7833 23.3445C21.8669 25.9495 23.2358 28.8041 25.8407 29.7204C25.9064 29.7435 25.9721 29.7652 26.0381 29.7854C26.0125 30.3779 26.0927 30.985 26.2914 31.5812C26.4053 31.9228 26.5525 32.244 26.7281 32.5423C26.3177 33.2681 26.0834 34.1067 26.0834 35C26.0834 35.5812 26.1825 36.1392 26.3648 36.6581C26.5039 37.0537 26.5734 37.2515 26.5811 37.2798C26.7523 37.9044 26.482 38.2857 25.836 38.3313C25.8068 38.3334 25.6719 38.3334 25.4022 38.3334H14.5978C13.2562 38.3334 12.1489 38.3334 11.247 38.2597C10.3101 38.1832 9.44896 38.0189 8.64007 37.6067C7.38565 36.9676 6.36578 35.9477 5.72663 34.6933C5.31447 33.8844 5.1502 33.0232 5.07366 32.0864C4.99996 31.1844 4.99998 30.0771 5 28.7355V11.2645C4.99998 9.92291 4.99996 8.81563 5.07366 7.91365C5.1502 6.97682 5.31447 6.11565 5.72663 5.30675C6.36578 4.05234 7.38565 3.03247 8.64007 2.39331C9.44896 1.98116 10.3101 1.81689 11.247 1.74035C12.1489 1.66665 13.2562 1.66667 14.5978 1.66669ZM11.6667 8.33335C10.7462 8.33335 10 9.07955 10 10C10 10.9205 10.7462 11.6667 11.6667 11.6667H26.6667C27.5871 11.6667 28.3333 10.9205 28.3333 10C28.3333 9.07955 27.5871 8.33335 26.6667 8.33335H11.6667ZM10 16.6667C10 15.7462 10.7462 15 11.6667 15H21.6667C22.5871 15 23.3333 15.7462 23.3333 16.6667C23.3333 17.5872 22.5871 18.3334 21.6667 18.3334H11.6667C10.7462 18.3334 10 17.5872 10 16.6667ZM10 23.3334C10 22.4129 10.7462 21.6667 11.6667 21.6667H15C15.9205 21.6667 16.6667 22.4129 16.6667 23.3334C16.6667 24.2538 15.9205 25 15 25H11.6667C10.7462 25 10 24.2538 10 23.3334Z" fill="#A0A6B8"/>
<path d="M29.9807 24.4535C30.4043 24.2046 30.9024 24.1136 31.3866 24.1966C31.8709 24.2797 32.3102 24.5315 32.6266 24.9074C32.943 25.2833 33.1162 25.759 33.1154 26.2503V26.2528C33.1154 26.6171 32.8201 27.119 31.984 27.6765C31.6167 27.9214 31.2375 28.1122 30.9435 28.2428C30.7989 28.3071 30.6807 28.3542 30.6026 28.384C30.5637 28.3988 30.5351 28.4092 30.5186 28.415L30.5051 28.4198C29.6336 28.7119 29.163 29.6547 29.4538 30.5271C29.7449 31.4003 30.6887 31.8722 31.562 31.5812L31.564 31.5805L31.6353 31.5557C31.6738 31.5421 31.7257 31.5232 31.7892 31.499C31.916 31.4507 32.0906 31.3807 32.2973 31.2888C32.706 31.1072 33.2636 30.8296 33.833 30.45C34.8702 29.7585 36.448 28.3873 36.4488 26.2544C36.4505 24.9762 35.9998 23.7386 35.1767 22.7607C34.3533 21.7826 33.2103 21.1274 31.9502 20.9113C30.69 20.6951 29.3941 20.932 28.2918 21.5798C27.1895 22.2276 26.3521 23.2446 25.9278 24.4507C25.6224 25.319 26.0787 26.2705 26.947 26.576C27.8153 26.8814 28.7668 26.4251 29.0723 25.5568C29.2353 25.0933 29.5571 24.7025 29.9807 24.4535Z" fill="#A0A6B8"/>
<path d="M31.0834 33.3334C30.1629 33.3334 29.4167 34.0795 29.4167 35C29.4167 35.9205 30.1629 36.6667 31.0834 36.6667H31.1C32.0205 36.6667 32.7667 35.9205 32.7667 35C32.7667 34.0795 32.0205 33.3334 31.1 33.3334H31.0834Z" fill="#A0A6B8"/>
</svg>
