<svg width="34" height="34" viewBox="0 0 34 34" fill="none" xmlns="http://www.w3.org/2000/svg">
<path fill-rule="evenodd" clip-rule="evenodd" d="M17.7404 1.89339C17.2554 1.7621 16.7443 1.7621 16.2594 1.89339C15.6965 2.04581 15.2225 2.41791 14.8443 2.71488L14.7385 2.79764L5.02018 10.3562C4.48662 10.7703 4.01654 11.1351 3.66626 11.6087C3.35886 12.0243 3.12986 12.4925 2.99051 12.9904C2.83173 13.5576 2.83238 14.1526 2.83311 14.828L2.8332 25.2715C2.83318 26.0183 2.83316 26.6625 2.87651 27.1932C2.92227 27.7532 3.0233 28.3103 3.29643 28.8463C3.70389 29.646 4.35406 30.2962 5.15375 30.7036C5.68978 30.9768 6.24684 31.0778 6.80692 31.1236C7.33755 31.1669 7.98179 31.1669 8.72857 31.1669H25.2712C26.018 31.1669 26.6622 31.1669 27.1928 31.1236C27.7529 31.0778 28.31 30.9768 28.846 30.7036C29.6457 30.2962 30.2959 29.646 30.7033 28.8463C30.9764 28.3103 31.0775 27.7532 31.1232 27.1932C31.1666 26.6625 31.1666 26.0183 31.1665 25.2715L31.1666 14.828C31.1674 14.1526 31.168 13.5576 31.0092 12.9904C30.8699 12.4925 30.6409 12.0243 30.3335 11.6087C29.9832 11.1351 29.5131 10.7703 28.9796 10.3562L19.2612 2.79764L19.1555 2.71489C18.7772 2.41791 18.3033 2.04581 17.7404 1.89339ZM11.3332 22.6669C10.5508 22.6669 9.91656 23.3012 9.91656 24.0836C9.91656 24.866 10.5508 25.5002 11.3332 25.5002H22.6666C23.449 25.5002 24.0832 24.866 24.0832 24.0836C24.0832 23.3012 23.449 22.6669 22.6666 22.6669H11.3332Z" fill="#A0A6B8"/>
</svg>
