<svg width="400" height="68" viewBox="0 0 400 68" fill="none" xmlns="http://www.w3.org/2000/svg">
<g clip-path="url(#clip0_957_2890)">
<rect width="400" height="68" fill="#FFF4CC"/>
<path d="M35.8346 45.8464C22.0478 47.9107 30.6106 65.687 35.9385 72.2978C57.6411 99.2072 92.9468 95.9861 103.475 61.1325C105.288 55.1241 104.928 43.6775 106.686 39.7255C107.397 38.127 109.162 36.2152 110.967 36.6731C114.042 37.4523 136.536 55.3168 140.146 58.6905C159.916 77.1415 132.143 112.317 116.95 125.048C70.2697 164.151 -8.64102 107.441 11.1126 51.5817C18.653 30.255 40.5713 5.53855 64.9579 8.19735C98.7539 11.8843 100.583 52.9633 79.9109 73.0369C69.6946 82.9572 65.7886 69.1892 60.8442 62.9238C55.8279 56.5699 44.4693 44.5611 35.8346 45.8544V45.8464Z" fill="#F2C62A"/>
<path d="M-51.1654 -76.1536C-64.9522 -74.0893 -56.3894 -56.313 -51.0615 -49.7022C-29.3589 -22.7928 5.94683 -26.0139 16.4747 -60.8675C18.2879 -66.8759 17.9284 -78.3225 19.6857 -82.2745C20.3966 -83.873 22.1619 -85.7848 23.9671 -85.3269C27.0424 -84.5477 49.5358 -66.6832 53.1463 -63.3095C72.9159 -44.8585 45.1426 -9.6835 29.9499 3.04824C-16.7303 42.1512 -95.641 -14.5593 -75.8874 -70.4183C-68.347 -91.745 -46.4287 -116.461 -22.0421 -113.803C11.7539 -110.116 13.5831 -69.0367 -7.08913 -48.9631C-17.3054 -39.0428 -21.2114 -52.8108 -26.1558 -59.0762C-31.1721 -65.4301 -42.5307 -77.4389 -51.1654 -76.1456V-76.1536Z" fill="#F2C62A"/>
<path d="M367.016 91.4114C378.598 89.0802 370.593 74.4397 365.802 69.0864C346.287 47.2969 316.541 51.5231 309.113 81.3947C307.834 86.5442 308.626 96.1916 307.307 99.6028C306.773 100.983 305.36 102.672 303.813 102.362C301.177 101.836 281.377 87.7153 278.178 85.0215C260.659 70.2897 282.669 39.4106 294.987 28.0144C332.833 -6.98752 402.039 37.5171 387.697 85.5146C382.223 103.84 364.723 125.64 343.968 124.437C315.206 122.767 311.909 88.1674 328.551 70.3396C336.776 61.5291 340.669 72.9848 345.12 78.0628C349.637 83.2124 359.762 92.865 367.016 91.4046L367.016 91.4114Z" fill="#F2C62A"/>
<path d="M392.016 -19.0187C403.597 -21.3499 395.593 -35.9905 390.802 -41.3437C371.286 -63.1333 341.54 -58.9071 334.113 -29.0355C332.834 -23.886 333.625 -14.2386 332.306 -10.8273C331.773 -9.4476 330.36 -7.75841 328.812 -8.06786C326.176 -8.59433 306.377 -22.7148 303.177 -25.4087C285.658 -40.1405 307.669 -71.0195 319.986 -82.4158C357.832 -117.418 427.038 -72.9131 412.697 -24.9156C407.222 -6.59047 389.722 15.2099 368.968 14.0064C340.205 12.3366 336.908 -22.2628 353.551 -40.0906C361.776 -48.9011 365.668 -37.4454 370.12 -32.3673C374.636 -27.2178 384.762 -17.5652 392.015 -19.0255L392.016 -19.0187Z" fill="#F2C62A"/>
<path d="M296.636 -22.8537C301.98 -29.7961 290.375 -34.0903 285.088 -34.7529C263.562 -37.4431 248.977 -20.5973 259.364 -0.269117C261.156 3.23452 266.295 8.24666 267.218 10.7974C267.591 11.8291 267.623 13.4619 266.606 14.0422C264.875 15.031 246.924 16.7698 243.822 16.8203C226.849 17.107 224.13 -10.8844 225.474 -23.2567C229.608 -61.2641 289.993 -70.0563 305.336 -36.2209C311.194 -23.3034 312.016 -2.5872 299.819 6.84332C282.914 19.9116 264.225 2.15924 264.857 -15.9172C265.17 -24.8505 272.924 -20.3362 277.887 -19.6624C282.921 -18.9801 293.285 -18.5091 296.632 -22.8573L296.636 -22.8537Z" fill="#F2C62A"/>
<path d="M120.12 10.3969C121.214 19.0897 132.478 13.965 136.698 10.7124C153.875 -2.5374 152.366 -24.7685 130.675 -31.8855C126.936 -33.1113 119.758 -33.0503 117.306 -34.2114C116.315 -34.6811 115.142 -35.8178 115.455 -36.9456C115.988 -38.8667 127.508 -52.7436 129.674 -54.9637C141.523 -67.1206 163.166 -49.1626 170.925 -39.4328C194.757 -9.5379 158.078 39.2302 123.357 26.0138C110.101 20.9687 94.9275 6.84028 96.9457 -8.445C99.7441 -29.6281 125.514 -30.1862 137.796 -16.9076C143.865 -10.3453 135.181 -8.08906 131.183 -5.07237C127.128 -2.01179 119.439 4.95263 120.125 10.397L120.12 10.3969Z" fill="#F2C62A"/>
<g clip-path="url(#clip1_957_2890)">
<path d="M226.629 46.5165C231.555 45.9128 235.059 41.4299 234.455 36.5037C233.852 31.5776 229.369 28.0736 224.443 28.6773C219.516 29.2811 216.012 33.7639 216.616 38.6901C217.22 43.6163 221.703 47.1203 226.629 46.5165Z" fill="#4F30F5"/>
<path d="M226.262 43.5188C229.532 43.1179 231.858 40.1417 231.458 36.8712C231.057 33.6006 228.081 31.2743 224.81 31.6751C221.539 32.0759 219.213 35.0522 219.614 38.3227C220.015 41.5932 222.991 43.9196 226.262 43.5188Z" fill="#F3F5F8"/>
<path d="M210.985 111.637L204.935 112.378C193.048 113.835 182.697 104.273 183.208 92.3087L184.002 73.735C184.408 64.2626 191.602 56.474 201.012 55.3207C210.422 54.1674 219.285 59.9881 221.966 69.0823L227.222 86.9144C230.607 98.4023 222.872 110.18 210.985 111.637Z" fill="#4F30F5"/>
<path d="M176.011 52.7204C180.937 52.1166 184.441 47.6338 183.838 42.7076C183.234 37.7814 178.751 34.2774 173.825 34.8812C168.899 35.4849 165.395 39.9678 165.998 44.894C166.602 49.8201 171.085 53.3241 176.011 52.7204Z" fill="#4F30F5"/>
<path d="M175.644 49.7226C178.914 49.3218 181.241 46.3455 180.84 43.075C180.439 39.8045 177.463 37.4781 174.192 37.879C170.922 38.2798 168.595 41.256 168.996 44.5266C169.397 47.7971 172.373 50.1235 175.644 49.7226Z" fill="#F3F5F8"/>
<path d="M203.615 68.3452C218.884 66.4739 229.744 52.5791 227.873 37.3104C226.002 22.0417 212.107 11.181 196.838 13.0523C181.57 14.9237 170.709 28.8184 172.58 44.0871C174.452 59.3558 188.346 70.2165 203.615 68.3452Z" fill="#4F30F5"/>
<path d="M219.681 30.435C218.799 24.1893 213.119 19.6699 206.836 20.2204C204.58 20.4172 202.534 21.2258 200.841 22.4627C199.221 23.6451 197.082 23.9072 195.225 23.1509C193.284 22.3594 191.103 22.0689 188.867 22.4227C182.636 23.4058 178.216 29.1631 178.868 35.4371C179.098 37.6499 179.915 39.6527 181.147 41.3116C181.882 42.3015 182.035 43.6065 181.562 44.7444C180.833 46.4974 180.514 48.4425 180.709 50.4434C181.363 57.1399 187.398 61.9476 194.037 61.1339C195 61.0159 195.922 60.7858 196.791 60.4598C200.465 59.0793 204.433 58.5929 208.33 59.0455C209.252 59.152 210.202 59.1527 211.165 59.0347C217.805 58.221 222.499 52.0999 221.517 45.4419C221.225 43.453 220.443 41.6427 219.313 40.1175C218.579 39.1277 218.413 37.8243 218.886 36.6864C219.68 34.779 219.99 32.6366 219.68 30.4352L219.681 30.435Z" fill="#F3F5F8"/>
<path d="M200.136 39.9586C200.801 39.8771 201.275 39.2715 201.193 38.6061C201.112 37.9406 200.506 37.4673 199.841 37.5489C199.175 37.6304 198.702 38.236 198.783 38.9014C198.865 39.5668 199.471 40.0402 200.136 39.9586Z" fill="#101010"/>
<path d="M193.551 37.0399C194.217 36.9584 194.69 36.3528 194.609 35.6874C194.527 35.0219 193.922 34.5486 193.256 34.6302C192.591 34.7117 192.117 35.3173 192.199 35.9827C192.28 36.6481 192.886 37.1215 193.551 37.0399Z" fill="#4F30F5"/>
<path d="M205.822 35.536C206.487 35.4545 206.96 34.8489 206.879 34.1835C206.797 33.518 206.192 33.0447 205.526 33.1263C204.861 33.2078 204.387 33.8134 204.469 34.4788C204.551 35.1442 205.156 35.6176 205.822 35.536Z" fill="#4F30F5"/>
<path d="M195.524 66.3105L176.444 80.6819C174.372 82.2426 171.424 81.8277 169.863 79.7556C168.302 77.6836 168.717 74.7358 170.789 73.1751L182.364 64.4569C186.507 61.3365 192.405 62.1667 195.525 66.3095L195.524 66.3105Z" fill="#4F30F5"/>
<path d="M198.914 45.2734C196.561 45.8594 194.17 44.4221 193.585 42.0689C193.457 41.5545 193.771 41.0346 194.284 40.9067C194.797 40.7788 195.318 41.0922 195.446 41.6051C195.776 42.9323 197.124 43.7413 198.45 43.4113C198.964 43.2832 199.484 43.5968 199.612 44.1096C199.74 44.6225 199.427 45.1439 198.914 45.2718L198.914 45.2734Z" fill="#101010"/>
<path d="M233.734 60.2258C240.604 60.1612 241.784 51.9811 238.023 47.5566C236.165 45.371 235.107 48.0458 233.99 49.1992C232.855 50.3709 229.873 52.5107 228.329 53.3651" fill="#4F30F5"/>
<path d="M238.208 53.266C239.466 55.5348 238.645 58.3963 236.376 59.6538L215.483 71.2336C212.969 66.6973 214.611 60.9721 219.147 58.4579L231.822 51.4332C234.091 50.1757 236.952 50.9963 238.21 53.2652L238.208 53.266Z" fill="#4F30F5"/>
<path d="M195.171 15.7678C190.709 12.8101 193.409 6.96436 197.744 5.66715C199.887 5.02719 199.442 7.22353 199.684 8.45266C199.928 9.69941 200.97 12.364 201.616 13.5777" fill="#4F30F5"/>
<path d="M189.791 17.569C186.7 15.5213 188.57 11.4719 191.571 10.574C193.055 10.1302 192.747 11.6512 192.915 12.5023C193.083 13.3534 193.805 15.21 194.253 16.0512" fill="#4F30F5"/>
</g>
</g>
<defs>
<clipPath id="clip0_957_2890">
<rect width="400" height="68" fill="white"/>
</clipPath>
<clipPath id="clip1_957_2890">
<rect width="82.1868" height="119.49" fill="white" transform="translate(152.092 10.1313) rotate(-6.98731)"/>
</clipPath>
</defs>
</svg>
