<svg width="34" height="34" viewBox="0 0 34 34" fill="none" xmlns="http://www.w3.org/2000/svg">
<path fill-rule="evenodd" clip-rule="evenodd" d="M12.4082 2.8335H21.5918C22.7322 2.83348 23.6734 2.83347 24.4401 2.89611C25.2364 2.96117 25.9684 3.1008 26.6559 3.45113C27.7222 3.99441 28.5891 4.8613 29.1324 5.92755C29.4827 6.61511 29.6223 7.34711 29.6874 8.14341C29.75 8.9101 29.75 9.85126 29.75 10.9916V29.7502C29.75 30.283 29.451 30.7708 28.9762 31.0126C28.5014 31.2544 27.931 31.2093 27.5001 30.8959L24.4784 28.6983L21.7808 30.8564C21.2824 31.2551 20.5788 31.2713 20.0626 30.8959L17 28.6685L13.9374 30.8959C13.4212 31.2713 12.7176 31.2551 12.2192 30.8564L9.52157 28.6983L6.49991 30.8959C6.06898 31.2093 5.49864 31.2544 5.02382 31.0126C4.54899 30.7708 4.25 30.283 4.25 29.7502V10.9916C4.24998 9.85128 4.24997 8.9101 4.31261 8.14341C4.37767 7.34711 4.5173 6.61511 4.86763 5.92755C5.41091 4.8613 6.2778 3.99441 7.34406 3.45113C8.03162 3.1008 8.76361 2.96117 9.55992 2.89611C10.3266 2.83347 11.2678 2.83348 12.4082 2.8335ZM22.9601 12.3352C23.5133 11.782 23.5133 10.885 22.9601 10.3318C22.4068 9.77852 21.5098 9.77852 20.9566 10.3318L15.5833 15.705L13.7517 13.8734C13.1985 13.3202 12.3015 13.3202 11.7483 13.8734C11.195 14.4267 11.195 15.3237 11.7483 15.8769L14.5816 18.7102C15.1348 19.2635 16.0318 19.2635 16.5851 18.7102L22.9601 12.3352Z" fill="#A0A6B8"/>
</svg>
