<svg width="34" height="34" viewBox="0 0 34 34" fill="none" xmlns="http://www.w3.org/2000/svg">
<path d="M18.4166 7.08335C18.4166 6.30095 17.7824 5.66669 17 5.66669C16.2176 5.66669 15.5833 6.30095 15.5833 7.08335V15.5834H7.08329C6.30089 15.5834 5.66663 16.2176 5.66663 17C5.66663 17.7824 6.30089 18.4167 7.08329 18.4167H15.5833V26.9167C15.5833 27.6991 16.2176 28.3334 17 28.3334C17.7824 28.3334 18.4166 27.6991 18.4166 26.9167V18.4167H26.9166C27.699 18.4167 28.3333 17.7824 28.3333 17C28.3333 16.2176 27.699 15.5834 26.9166 15.5834H18.4166V7.08335Z" fill="#542EFF"/>
</svg>
