<svg width="34" height="34" viewBox="0 0 34 34" fill="none" xmlns="http://www.w3.org/2000/svg">
<path fill-rule="evenodd" clip-rule="evenodd" d="M27.3218 22.6109C27.2385 22.1513 27.2947 21.6773 27.4833 21.25C27.6629 20.831 27.9611 20.4737 28.3411 20.222C28.7212 19.9702 29.1666 19.8352 29.6225 19.8334H29.75C30.5014 19.8334 31.2221 19.5348 31.7534 19.0035C32.2848 18.4721 32.5833 17.7515 32.5833 17C32.5833 16.2486 32.2848 15.5279 31.7534 14.9966C31.2221 14.4652 30.5014 14.1667 29.75 14.1667H29.5091C29.0533 14.1649 28.6079 14.0298 28.2278 13.7781C27.8477 13.5264 27.5495 13.169 27.37 12.75V12.6367C27.1814 12.2094 27.1251 11.7354 27.2085 11.2759C27.2918 10.8163 27.5109 10.3922 27.8375 10.0584L27.9225 9.97335C28.1859 9.71021 28.3949 9.39773 28.5375 9.05377C28.68 8.70981 28.7534 8.34111 28.7534 7.96877C28.7534 7.59643 28.68 7.22773 28.5375 6.88377C28.3949 6.53981 28.1859 6.22733 27.9225 5.96419C27.6593 5.70075 27.3468 5.49177 27.0029 5.34918C26.6589 5.2066 26.2902 5.13321 25.9179 5.13321C25.5455 5.13321 25.1768 5.2066 24.8329 5.34918C24.4889 5.49177 24.1764 5.70075 23.9133 5.96419L23.8283 6.04919C23.4944 6.37578 23.0704 6.59487 22.6108 6.67819C22.1512 6.76152 21.6772 6.70527 21.25 6.51669C20.831 6.33711 20.4736 6.03892 20.2219 5.65885C19.9702 5.27877 19.8351 4.83338 19.8333 4.37752V4.25002C19.8333 3.49857 19.5348 2.7779 19.0034 2.24655C18.4721 1.7152 17.7514 1.41669 17 1.41669C16.2485 1.41669 15.5278 1.7152 14.9965 2.24655C14.4651 2.7779 14.1666 3.49857 14.1666 4.25002V4.49085C14.1648 4.94672 14.0297 5.3921 13.778 5.77218C13.5263 6.15226 13.169 6.45044 12.75 6.63002H12.6366C12.2093 6.8186 11.7354 6.87485 11.2758 6.79153C10.8162 6.7082 10.3922 6.48911 10.0583 6.16252L9.97329 6.07752C9.71015 5.81409 9.39767 5.6051 9.05371 5.46252C8.70975 5.31993 8.34105 5.24654 7.96871 5.24654C7.59637 5.24654 7.22767 5.31993 6.88371 5.46252C6.53975 5.6051 6.22727 5.81409 5.96413 6.07752C5.70069 6.34066 5.49171 6.65314 5.34912 6.99711C5.20654 7.34107 5.13315 7.70976 5.13315 8.0821C5.13315 8.45445 5.20654 8.82314 5.34912 9.1671C5.49171 9.51106 5.70069 9.82355 5.96413 10.0867L6.04913 10.1717C6.37572 10.5056 6.59481 10.9296 6.67813 11.3892C6.76146 11.8487 6.70521 12.3227 6.51663 12.75C6.35472 13.1902 6.06413 13.5715 5.68263 13.8444C5.30113 14.1173 4.84637 14.2691 4.37746 14.28H4.24996C3.49851 14.28 2.77784 14.5785 2.24649 15.1099C1.71514 15.6412 1.41663 16.3619 1.41663 17.1134C1.41663 17.8648 1.71514 18.5855 2.24649 19.1168C2.77784 19.6482 3.49851 19.9467 4.24996 19.9467H4.49079C4.94666 19.9485 5.39204 20.0836 5.77212 20.3353C6.1522 20.587 6.45038 20.9443 6.62996 21.3634C6.81854 21.7906 6.87479 22.2646 6.79147 22.7242C6.70814 23.1837 6.48905 23.6078 6.16246 23.9417L6.07746 24.0267C5.81403 24.2898 5.60504 24.6023 5.46246 24.9463C5.31987 25.2902 5.24648 25.6589 5.24648 26.0313C5.24648 26.4036 5.31987 26.7723 5.46246 27.1163C5.60504 27.4602 5.81403 27.7727 6.07746 28.0359C6.3406 28.2993 6.65308 28.5083 6.99704 28.6509C7.34101 28.7934 7.7097 28.8668 8.08204 28.8668C8.45439 28.8668 8.82308 28.7934 9.16704 28.6509C9.511 28.5083 9.82349 28.2993 10.0866 28.0359L10.1716 27.9509C10.5055 27.6243 10.9296 27.4052 11.3891 27.3218C11.8487 27.2385 12.3227 27.2948 12.75 27.4834C13.1902 27.6453 13.5715 27.9358 13.8443 28.3173C14.1172 28.6988 14.269 29.1536 14.28 29.6225V29.75C14.28 30.5015 14.5785 31.2221 15.1098 31.7535C15.6412 32.2848 16.3618 32.5834 17.1133 32.5834C17.8647 32.5834 18.5854 32.2848 19.1168 31.7535C19.6481 31.2221 19.9466 30.5015 19.9466 29.75V29.5092C19.9484 29.0533 20.0835 28.6079 20.3352 28.2279C20.5869 27.8478 20.9443 27.5496 21.3633 27.37C21.7906 27.1814 22.2646 27.1252 22.7241 27.2085C23.1837 27.2918 23.6077 27.5109 23.9416 27.8375L24.0266 27.9225C24.2898 28.186 24.6023 28.3949 24.9462 28.5375C25.2902 28.6801 25.6589 28.7535 26.0312 28.7535C26.4036 28.7535 26.7722 28.6801 27.1162 28.5375C27.4602 28.3949 27.7727 28.186 28.0358 27.9225C28.2992 27.6594 28.5082 27.3469 28.6508 27.0029C28.7934 26.659 28.8668 26.2903 28.8668 25.9179C28.8668 25.5456 28.7934 25.1769 28.6508 24.8329C28.5082 24.489 28.2992 24.1765 28.0358 23.9134L27.9508 23.8284C27.6242 23.4945 27.4051 23.0704 27.3218 22.6109ZM21.25 17C21.25 19.3472 19.3472 21.25 17 21.25C14.6527 21.25 12.75 19.3472 12.75 17C12.75 14.6528 14.6527 12.75 17 12.75C19.3472 12.75 21.25 14.6528 21.25 17Z" fill="#A0A6B8"/>
</svg>
