<svg width="34" height="34" viewBox="0 0 34 34" fill="none" xmlns="http://www.w3.org/2000/svg">
<path fill-rule="evenodd" clip-rule="evenodd" d="M12.4082 2.83331H21.5918C22.7322 2.8333 23.6734 2.83328 24.4401 2.89592C25.2364 2.96098 25.9684 3.10062 26.6559 3.45094C27.7222 3.99423 28.5891 4.86112 29.1324 5.92737C29.4827 6.61493 29.6223 7.34692 29.6874 8.14323C29.75 8.90991 29.75 9.85108 29.75 10.9914V29.75C29.75 30.2828 29.451 30.7706 28.9762 31.0124C28.5014 31.2542 27.931 31.2091 27.5001 30.8957L24.4784 28.6981L21.7808 30.8562C21.2824 31.255 20.5788 31.2711 20.0626 30.8957L17 28.6684L13.9374 30.8957C13.4212 31.2711 12.7176 31.255 12.2192 30.8562L9.52157 28.6981L6.49991 30.8957C6.06898 31.2091 5.49864 31.2542 5.02382 31.0124C4.54899 30.7706 4.25 30.2828 4.25 29.75V10.9915C4.24998 9.8511 4.24997 8.90991 4.31261 8.14323C4.37767 7.34692 4.5173 6.61493 4.86763 5.92737C5.41091 4.86112 6.2778 3.99423 7.34406 3.45094C8.03162 3.10062 8.76361 2.96098 9.55992 2.89592C10.3266 2.83328 11.2678 2.8333 12.4082 2.83331ZM22.9601 12.335C23.5133 11.7818 23.5133 10.8848 22.9601 10.3316C22.4068 9.77834 21.5098 9.77834 20.9566 10.3316L15.5833 15.7048L13.7517 13.8732C13.1985 13.32 12.3015 13.32 11.7483 13.8732C11.195 14.4265 11.195 15.3235 11.7483 15.8767L14.5816 18.71C15.1348 19.2633 16.0318 19.2633 16.5851 18.71L22.9601 12.335Z" fill="#A0A6B8"/>
</svg>
