<svg width="34" height="34" viewBox="0 0 34 34" fill="none" xmlns="http://www.w3.org/2000/svg">
<path fill-rule="evenodd" clip-rule="evenodd" d="M17.7404 1.89315C17.2554 1.76185 16.7443 1.76185 16.2594 1.89315C15.6965 2.04557 15.2225 2.41766 14.8443 2.71464L14.7385 2.7974L5.02018 10.356C4.48662 10.7701 4.01654 11.1348 3.66626 11.6084C3.35886 12.0241 3.12986 12.4923 2.99051 12.9901C2.83173 13.5574 2.83238 14.1524 2.83311 14.8278L2.8332 25.2712C2.83318 26.018 2.83316 26.6623 2.87651 27.1929C2.92227 27.753 3.0233 28.31 3.29643 28.8461C3.70389 29.6458 4.35406 30.2959 5.15375 30.7034C5.68978 30.9765 6.24684 31.0776 6.80692 31.1233C7.33755 31.1667 7.98179 31.1667 8.72857 31.1666H25.2712C26.018 31.1667 26.6622 31.1667 27.1928 31.1233C27.7529 31.0776 28.31 30.9765 28.846 30.7034C29.6457 30.2959 30.2959 29.6458 30.7033 28.8461C30.9764 28.31 31.0775 27.753 31.1232 27.1929C31.1666 26.6623 31.1666 26.018 31.1665 25.2713L31.1666 14.8278C31.1674 14.1524 31.168 13.5574 31.0092 12.9901C30.8699 12.4923 30.6409 12.0241 30.3335 11.6084C29.9832 11.1348 29.5131 10.77 28.9796 10.356L19.2612 2.7974L19.1555 2.71464C18.7772 2.41767 18.3033 2.04557 17.7404 1.89315ZM11.3332 22.6666C10.5508 22.6666 9.91656 23.3009 9.91656 24.0833C9.91656 24.8657 10.5508 25.5 11.3332 25.5H22.6666C23.449 25.5 24.0832 24.8657 24.0832 24.0833C24.0832 23.3009 23.449 22.6666 22.6666 22.6666H11.3332Z" fill="#A0A6B8"/>
</svg>
