<svg width="34" height="34" viewBox="0 0 34 34" fill="none" xmlns="http://www.w3.org/2000/svg">
<path fill-rule="evenodd" clip-rule="evenodd" d="M10.9915 2.83331L11.3334 2.83331C12.1158 2.83331 12.75 3.46758 12.75 4.24998C12.75 5.03238 12.1158 5.66665 11.3334 5.66665H11.05C9.83655 5.66665 9.01164 5.66775 8.37401 5.71985C7.75292 5.77059 7.4353 5.86257 7.21374 5.97546C6.68061 6.2471 6.24716 6.68055 5.97552 7.21367C5.86263 7.43524 5.77065 7.75286 5.71991 8.37395C5.66781 9.01158 5.66671 9.83649 5.66671 11.05V11.3333C5.66671 12.1157 5.03245 12.75 4.25004 12.75C3.46764 12.75 2.83338 12.1157 2.83338 11.3333L2.83337 10.9915C2.83336 9.8511 2.83334 8.90992 2.89598 8.14323C2.96104 7.34692 3.10068 6.61493 3.45101 5.92737C3.99429 4.86112 4.86118 3.99423 5.92743 3.45094C6.61499 3.10062 7.34698 2.96098 8.14329 2.89592C8.90998 2.83328 9.85116 2.8333 10.9915 2.83331Z" fill="#542EFF"/>
<path fill-rule="evenodd" clip-rule="evenodd" d="M4.25004 21.25C5.03245 21.25 5.66671 21.8842 5.66671 22.6666V22.95C5.66671 24.1635 5.66781 24.9884 5.71991 25.626C5.77065 26.2471 5.86263 26.5647 5.97552 26.7863C6.24716 27.3194 6.68061 27.7529 7.21374 28.0245C7.4353 28.1374 7.75292 28.2294 8.37401 28.2801C9.01164 28.3322 9.83655 28.3333 11.05 28.3333H11.3334C12.1158 28.3333 12.75 28.9676 12.75 29.75C12.75 30.5324 12.1158 31.1666 11.3334 31.1666H10.9915C9.85116 31.1667 8.90998 31.1667 8.14329 31.104C7.34698 31.039 6.61499 30.8993 5.92743 30.549C4.86118 30.0057 3.99429 29.1388 3.45101 28.0726C3.10068 27.385 2.96104 26.653 2.89598 25.8567C2.83334 25.09 2.83336 24.1489 2.83337 23.0085C2.83337 22.989 2.83338 22.9695 2.83338 22.95V22.6666C2.83338 21.8842 3.46764 21.25 4.25004 21.25Z" fill="#542EFF"/>
<path fill-rule="evenodd" clip-rule="evenodd" d="M25.6261 5.71985C24.9884 5.66775 24.1635 5.66665 22.95 5.66665H22.6667C21.8843 5.66665 21.25 5.03238 21.25 4.24998C21.25 3.46758 21.8843 2.83331 22.6667 2.83331H22.95C22.9696 2.83331 22.9891 2.83331 23.0085 2.83331C24.1489 2.8333 25.0901 2.83328 25.8568 2.89592C26.6531 2.96098 27.3851 3.10062 28.0727 3.45094C29.1389 3.99423 30.0058 4.86112 30.5491 5.92737C30.8994 6.61493 31.039 7.34692 31.1041 8.14323C31.1667 8.90992 31.1667 9.8511 31.1667 10.9915V11.3333C31.1667 12.1157 30.5324 12.75 29.75 12.75C28.9676 12.75 28.3334 12.1157 28.3334 11.3333V11.05C28.3334 9.83649 28.3323 9.01158 28.2802 8.37395C28.2294 7.75286 28.1375 7.43524 28.0246 7.21367C27.7529 6.68055 27.3195 6.2471 26.7863 5.97546C26.5648 5.86257 26.2472 5.77059 25.6261 5.71985Z" fill="#542EFF"/>
<path fill-rule="evenodd" clip-rule="evenodd" d="M29.75 21.25C30.5324 21.25 31.1667 21.8842 31.1667 22.6666V23.0085C31.1667 24.1489 31.1667 25.09 31.1041 25.8567C31.039 26.653 30.8994 27.385 30.5491 28.0726C30.0058 29.1388 29.1389 30.0057 28.0727 30.549C27.3851 30.8993 26.6531 31.039 25.8568 31.104C25.0901 31.1667 24.1489 31.1667 23.0085 31.1666H22.6667C21.8843 31.1666 21.25 30.5324 21.25 29.75C21.25 28.9676 21.8843 28.3333 22.6667 28.3333H22.95C24.1635 28.3333 24.9884 28.3322 25.6261 28.2801C26.2472 28.2294 26.5648 28.1374 26.7863 28.0245C27.3195 27.7529 27.7529 27.3194 28.0246 26.7863C28.1375 26.5647 28.2294 26.2471 28.2802 25.626C28.3323 24.9884 28.3334 24.1635 28.3334 22.95V22.6666C28.3334 21.8842 28.9676 21.25 29.75 21.25Z" fill="#542EFF"/>
<path fill-rule="evenodd" clip-rule="evenodd" d="M2.83338 17C2.83338 16.2176 3.46764 15.5833 4.25004 15.5833H4.26421C5.04661 15.5833 5.68088 16.2176 5.68088 17C5.68088 17.7824 5.04661 18.4166 4.26421 18.4166H4.25004C3.46764 18.4166 2.83338 17.7824 2.83338 17Z" fill="#542EFF"/>
<path fill-rule="evenodd" clip-rule="evenodd" d="M9.20838 17C9.20838 16.2176 9.84264 15.5833 10.625 15.5833H10.6392C11.4216 15.5833 12.0559 16.2176 12.0559 17C12.0559 17.7824 11.4216 18.4166 10.6392 18.4166H10.625C9.84264 18.4166 9.20838 17.7824 9.20838 17Z" fill="#542EFF"/>
<path fill-rule="evenodd" clip-rule="evenodd" d="M21.9584 17C21.9584 16.2176 22.5926 15.5833 23.375 15.5833H23.3892C24.1716 15.5833 24.8059 16.2176 24.8059 17C24.8059 17.7824 24.1716 18.4166 23.3892 18.4166H23.375C22.5926 18.4166 21.9584 17.7824 21.9584 17Z" fill="#542EFF"/>
<path fill-rule="evenodd" clip-rule="evenodd" d="M15.5834 17C15.5834 16.2176 16.2176 15.5833 17 15.5833H17.0142C17.7966 15.5833 18.4309 16.2176 18.4309 17C18.4309 17.7824 17.7966 18.4166 17.0142 18.4166H17C16.2176 18.4166 15.5834 17.7824 15.5834 17Z" fill="#542EFF"/>
<path fill-rule="evenodd" clip-rule="evenodd" d="M28.3334 17C28.3334 16.2176 28.9676 15.5833 29.75 15.5833H29.7642C30.5466 15.5833 31.1809 16.2176 31.1809 17C31.1809 17.7824 30.5466 18.4166 29.7642 18.4166H29.75C28.9676 18.4166 28.3334 17.7824 28.3334 17Z" fill="#542EFF"/>
</svg>
