<svg width="28" height="28" viewBox="0 0 28 28" fill="none" xmlns="http://www.w3.org/2000/svg">
<g filter="url(#filter0_f_383_6999)">
<path d="M-0.161621 14.0601C-0.146773 16.2901 0.488679 18.591 1.45054 20.4485V20.4612C2.14553 21.8101 3.09539 22.8757 4.17725 23.9314L10.7115 21.5472C9.47522 20.9193 9.28659 20.5345 8.40041 19.8323C7.49482 18.9192 6.81987 17.8709 6.39954 16.6416H6.38261L6.39954 16.6289C6.12301 15.8171 6.09573 14.9555 6.08553 14.0601H-0.161621Z" fill="url(#paint0_radial_383_6999)"/>
</g>
<g filter="url(#filter1_f_383_6999)">
<path d="M14.3427 -0.135742C13.6968 2.13318 13.9438 4.33865 14.3427 5.62189C15.0885 5.62245 15.8069 5.71135 16.4881 5.88845C18.0499 6.29447 19.1544 7.09415 19.8314 7.72667L24.0203 3.62453C21.5388 1.34923 18.5523 -0.132157 14.3427 -0.135742Z" fill="url(#paint1_radial_383_6999)"/>
</g>
<g filter="url(#filter2_f_383_6999)">
<path d="M14.3287 -0.153809C11.1608 -0.153877 8.23613 0.83314 5.83943 2.50123C4.94953 3.1206 4.13289 3.83607 3.40572 4.63168C3.21522 6.41885 4.83176 8.61547 8.03301 8.59729C9.58623 6.79053 11.8834 5.62157 14.4402 5.62157C14.4425 5.62157 14.4448 5.62176 14.4471 5.62177L14.3427 -0.1534C14.338 -0.153403 14.3334 -0.153809 14.3287 -0.153809Z" fill="url(#paint2_radial_383_6999)"/>
</g>
<g filter="url(#filter3_f_383_6999)">
<path d="M24.7843 14.7067L21.9568 16.6492C21.8327 17.4109 21.5539 18.1603 21.1459 18.8436C20.6784 19.6265 20.1006 20.2225 19.5082 20.6764C17.7376 22.0332 15.6744 22.3126 14.2382 22.3137C12.7537 24.8422 12.4934 26.1086 14.3426 28.1492C16.6308 28.1476 18.6593 27.7345 20.4487 26.961C21.7421 26.4019 22.8881 25.6726 23.9256 24.7353C25.2966 23.4969 26.3704 21.965 27.1033 20.2026C27.8361 18.4402 28.228 16.4473 28.228 14.2866L24.7843 14.7067Z" fill="url(#paint3_radial_383_6999)"/>
</g>
<g filter="url(#filter4_f_383_6999)">
<path d="M14.1338 11.1641V16.9556H27.7378C27.8574 16.1625 28.2531 15.1361 28.2531 14.2864C28.2531 13.2934 28.1535 12.0806 27.9843 11.1641H14.1338Z" fill="#3086FF"/>
</g>
<g filter="url(#filter5_f_383_6999)">
<path d="M3.47058 4.42725C2.63107 5.34578 1.91387 6.37388 1.34522 7.48576C0.369631 9.38731 -0.164551 11.6991 -0.164551 13.9648C-0.164551 13.9967 -0.161908 14.028 -0.161695 14.0599C0.270364 14.8883 5.80642 14.7296 6.08546 14.0599C6.08511 14.0286 6.08159 13.9981 6.08159 13.9668C6.08159 13.0375 6.23859 12.3525 6.52476 11.5124C6.87778 10.4761 7.43055 9.52176 8.13738 8.69955C8.29761 8.49498 8.72501 8.05521 8.8497 7.79143C8.8972 7.69095 8.76347 7.63456 8.75599 7.59919C8.74762 7.55964 8.56832 7.59145 8.52815 7.56198C8.40061 7.46843 8.14805 7.41958 7.99468 7.37615C7.66688 7.28334 7.12361 7.07865 6.82187 6.86647C5.86807 6.19578 4.37957 5.39464 3.47058 4.42725Z" fill="url(#paint4_radial_383_6999)"/>
</g>
<g filter="url(#filter6_f_383_6999)">
<path d="M6.84224 7.603C9.05401 8.94278 9.69008 6.92673 11.1606 6.29586L8.60258 0.991211C7.6616 1.3867 6.77256 1.87807 5.94767 2.45218C4.71577 3.30959 3.6279 4.35586 2.72925 5.54653L6.84224 7.603Z" fill="url(#paint5_radial_383_6999)"/>
</g>
<g filter="url(#filter7_f_383_6999)">
<path d="M7.74253 21.1372C4.77351 22.209 4.3087 22.2475 4.0354 24.0874C4.55766 24.5971 5.11879 25.0685 5.71507 25.496C7.31509 26.6429 10.3928 28.1704 14.329 28.1704C14.3336 28.1704 14.338 28.17 14.3426 28.17V22.2113C14.3397 22.2113 14.3362 22.2115 14.3333 22.2115C12.8593 22.2115 11.6815 21.8244 10.4738 21.1511C10.1761 20.9851 9.63587 21.4309 9.36126 21.2316C8.98252 20.9568 8.07103 21.4684 7.74253 21.1372Z" fill="url(#paint6_radial_383_6999)"/>
</g>
<g opacity="0.5" filter="url(#filter8_f_383_6999)">
<path d="M12.6038 22.0234V28.0666C13.1545 28.1311 13.7276 28.1702 14.3289 28.1702C14.9316 28.1702 15.5148 28.1393 16.0814 28.0824V22.0642C15.4464 22.1727 14.8484 22.2113 14.3332 22.2113C13.7399 22.2113 13.1628 22.1423 12.6038 22.0234Z" fill="url(#paint7_linear_383_6999)"/>
</g>
<defs>
<filter id="filter0_f_383_6999" x="-0.6317" y="13.59" width="11.8132" height="10.8117" filterUnits="userSpaceOnUse" color-interpolation-filters="sRGB">
<feFlood flood-opacity="0" result="BackgroundImageFix"/>
<feBlend mode="normal" in="SourceGraphic" in2="BackgroundImageFix" result="shape"/>
<feGaussianBlur stdDeviation="0.23504" result="effect1_foregroundBlur_383_6999"/>
</filter>
<filter id="filter1_f_383_6999" x="13.4755" y="-0.605822" width="11.0149" height="8.80246" filterUnits="userSpaceOnUse" color-interpolation-filters="sRGB">
<feFlood flood-opacity="0" result="BackgroundImageFix"/>
<feBlend mode="normal" in="SourceGraphic" in2="BackgroundImageFix" result="shape"/>
<feGaussianBlur stdDeviation="0.23504" result="effect1_foregroundBlur_383_6999"/>
</filter>
<filter id="filter2_f_383_6999" x="2.92055" y="-0.623888" width="11.9966" height="9.69114" filterUnits="userSpaceOnUse" color-interpolation-filters="sRGB">
<feFlood flood-opacity="0" result="BackgroundImageFix"/>
<feBlend mode="normal" in="SourceGraphic" in2="BackgroundImageFix" result="shape"/>
<feGaussianBlur stdDeviation="0.23504" result="effect1_foregroundBlur_383_6999"/>
</filter>
<filter id="filter3_f_383_6999" x="12.5695" y="13.8165" width="16.1286" height="14.803" filterUnits="userSpaceOnUse" color-interpolation-filters="sRGB">
<feFlood flood-opacity="0" result="BackgroundImageFix"/>
<feBlend mode="normal" in="SourceGraphic" in2="BackgroundImageFix" result="shape"/>
<feGaussianBlur stdDeviation="0.23504" result="effect1_foregroundBlur_383_6999"/>
</filter>
<filter id="filter4_f_383_6999" x="13.6637" y="10.694" width="15.0595" height="6.73166" filterUnits="userSpaceOnUse" color-interpolation-filters="sRGB">
<feFlood flood-opacity="0" result="BackgroundImageFix"/>
<feBlend mode="normal" in="SourceGraphic" in2="BackgroundImageFix" result="shape"/>
<feGaussianBlur stdDeviation="0.23504" result="effect1_foregroundBlur_383_6999"/>
</filter>
<filter id="filter5_f_383_6999" x="-0.63463" y="3.95717" width="9.96457" height="11.136" filterUnits="userSpaceOnUse" color-interpolation-filters="sRGB">
<feFlood flood-opacity="0" result="BackgroundImageFix"/>
<feBlend mode="normal" in="SourceGraphic" in2="BackgroundImageFix" result="shape"/>
<feGaussianBlur stdDeviation="0.23504" result="effect1_foregroundBlur_383_6999"/>
</filter>
<filter id="filter6_f_383_6999" x="-0.575602" y="-2.31364" width="15.0411" height="13.6717" filterUnits="userSpaceOnUse" color-interpolation-filters="sRGB">
<feFlood flood-opacity="0" result="BackgroundImageFix"/>
<feBlend mode="normal" in="SourceGraphic" in2="BackgroundImageFix" result="shape"/>
<feGaussianBlur stdDeviation="1.65243" result="effect1_foregroundBlur_383_6999"/>
</filter>
<filter id="filter7_f_383_6999" x="3.56532" y="20.6432" width="11.2473" height="7.99729" filterUnits="userSpaceOnUse" color-interpolation-filters="sRGB">
<feFlood flood-opacity="0" result="BackgroundImageFix"/>
<feBlend mode="normal" in="SourceGraphic" in2="BackgroundImageFix" result="shape"/>
<feGaussianBlur stdDeviation="0.23504" result="effect1_foregroundBlur_383_6999"/>
</filter>
<filter id="filter8_f_383_6999" x="12.1337" y="21.5534" width="4.4177" height="7.08713" filterUnits="userSpaceOnUse" color-interpolation-filters="sRGB">
<feFlood flood-opacity="0" result="BackgroundImageFix"/>
<feBlend mode="normal" in="SourceGraphic" in2="BackgroundImageFix" result="shape"/>
<feGaussianBlur stdDeviation="0.23504" result="effect1_foregroundBlur_383_6999"/>
</filter>
<radialGradient id="paint0_radial_383_6999" cx="0" cy="0" r="1" gradientTransform="matrix(-0.581842 -13.9439 20.9196 -0.836761 10.5807 23.7213)" gradientUnits="userSpaceOnUse">
<stop offset="0.141612" stop-color="#1ABD4D"/>
<stop offset="0.247515" stop-color="#6EC30D"/>
<stop offset="0.311547" stop-color="#8AC502"/>
<stop offset="0.366013" stop-color="#A2C600"/>
<stop offset="0.445673" stop-color="#C8C903"/>
<stop offset="0.540305" stop-color="#EBCB03"/>
<stop offset="0.615636" stop-color="#F7CD07"/>
<stop offset="0.699345" stop-color="#FDCD04"/>
<stop offset="0.771242" stop-color="#FDCE05"/>
<stop offset="0.860566" stop-color="#FFCE0A"/>
</radialGradient>
<radialGradient id="paint1_radial_383_6999" cx="0" cy="0" r="1" gradientTransform="matrix(9.88128 -2.37483e-05 -1.38885e-05 12.4941 23.6284 7.42986)" gradientUnits="userSpaceOnUse">
<stop offset="0.408458" stop-color="#FB4E5A"/>
<stop offset="1" stop-color="#FF4540"/>
</radialGradient>
<radialGradient id="paint2_radial_383_6999" cx="0" cy="0" r="1" gradientTransform="matrix(-13.8444 7.50741 10.4052 18.3936 18.2323 -1.96238)" gradientUnits="userSpaceOnUse">
<stop offset="0.231273" stop-color="#FF4541"/>
<stop offset="0.311547" stop-color="#FF4540"/>
<stop offset="0.457516" stop-color="#FF4640"/>
<stop offset="0.540305" stop-color="#FF473F"/>
<stop offset="0.699346" stop-color="#FF5138"/>
<stop offset="0.771242" stop-color="#FF5B33"/>
<stop offset="0.860566" stop-color="#FF6C29"/>
<stop offset="1" stop-color="#FF8C18"/>
</radialGradient>
<radialGradient id="paint3_radial_383_6999" cx="0" cy="0" r="1" gradientTransform="matrix(-25.1072 -32.0888 -12.0979 9.07377 14.5484 26.337)" gradientUnits="userSpaceOnUse">
<stop offset="0.131546" stop-color="#0CBA65"/>
<stop offset="0.209784" stop-color="#0BB86D"/>
<stop offset="0.297297" stop-color="#09B479"/>
<stop offset="0.396257" stop-color="#08AD93"/>
<stop offset="0.477124" stop-color="#0AA6A9"/>
<stop offset="0.568425" stop-color="#0D9CC6"/>
<stop offset="0.667385" stop-color="#1893DD"/>
<stop offset="0.768727" stop-color="#258BF1"/>
<stop offset="0.858506" stop-color="#3086FF"/>
</radialGradient>
<radialGradient id="paint4_radial_383_6999" cx="0" cy="0" r="1" gradientTransform="matrix(-1.77678 14.9942 21.1751 2.4053 13.1157 2.49073)" gradientUnits="userSpaceOnUse">
<stop offset="0.366013" stop-color="#FF4E3A"/>
<stop offset="0.457516" stop-color="#FF8A1B"/>
<stop offset="0.540305" stop-color="#FFA312"/>
<stop offset="0.615636" stop-color="#FFB60C"/>
<stop offset="0.771242" stop-color="#FFCD0A"/>
<stop offset="0.860566" stop-color="#FECF0A"/>
<stop offset="0.915033" stop-color="#FECF08"/>
<stop offset="1" stop-color="#FDCD01"/>
</radialGradient>
<radialGradient id="paint5_radial_383_6999" cx="0" cy="0" r="1" gradientTransform="matrix(-5.13581 5.56124 -16.0209 -14.1827 10.617 2.33504)" gradientUnits="userSpaceOnUse">
<stop offset="0.315904" stop-color="#FF4C3C"/>
<stop offset="0.603818" stop-color="#FF692C"/>
<stop offset="0.726837" stop-color="#FF7825"/>
<stop offset="0.884534" stop-color="#FF8D1B"/>
<stop offset="1" stop-color="#FF9F13"/>
</radialGradient>
<radialGradient id="paint6_radial_383_6999" cx="0" cy="0" r="1" gradientTransform="matrix(-13.8444 -7.5074 10.4052 -18.3936 18.2322 29.8939)" gradientUnits="userSpaceOnUse">
<stop offset="0.231273" stop-color="#0FBC5F"/>
<stop offset="0.311547" stop-color="#0FBC5F"/>
<stop offset="0.366013" stop-color="#0FBC5E"/>
<stop offset="0.457516" stop-color="#0FBC5D"/>
<stop offset="0.540305" stop-color="#12BC58"/>
<stop offset="0.699346" stop-color="#28BF3C"/>
<stop offset="0.771242" stop-color="#38C02B"/>
<stop offset="0.860566" stop-color="#52C218"/>
<stop offset="0.915033" stop-color="#67C30F"/>
<stop offset="1" stop-color="#86C504"/>
</radialGradient>
<linearGradient id="paint7_linear_383_6999" x1="12.6038" y1="25.0968" x2="16.0814" y2="25.0968" gradientUnits="userSpaceOnUse">
<stop stop-color="#0FBC5C"/>
<stop offset="1" stop-color="#0CBA65"/>
</linearGradient>
</defs>
</svg>
