<svg width="30" height="30" viewBox="0 0 30 30" fill="none" xmlns="http://www.w3.org/2000/svg">
<path fill-rule="evenodd" clip-rule="evenodd" d="M4.2725 22.8789C6.7387 19.615 10.6234 17.5 14.9998 17.5C19.3762 17.5 23.2609 19.615 25.7271 22.8789C25.7383 22.8936 25.7495 22.9084 25.7607 22.9233C25.9728 23.2037 26.2001 23.5044 26.3626 23.7945C26.5593 24.1456 26.705 24.5517 26.696 25.0457C26.6887 25.4428 26.5684 25.8145 26.4223 26.108C26.2763 26.4015 26.0522 26.7216 25.7398 26.9667C25.3231 27.2937 24.8695 27.4094 24.4665 27.4578C24.113 27.5002 23.694 27.5001 23.2727 27.5C23.2537 27.5 23.2348 27.5 23.2158 27.5H6.78385C6.76487 27.5 6.74589 27.5 6.72691 27.5C6.30566 27.5001 5.88667 27.5002 5.53312 27.4578C5.13013 27.4094 4.6765 27.2937 4.25984 26.9667C3.94741 26.7216 3.72338 26.4015 3.57728 26.108C3.43119 25.8145 3.31088 25.4428 3.30362 25.0457C3.29459 24.5517 3.44035 24.1456 3.63702 23.7945C3.7995 23.5044 4.02687 23.2037 4.23891 22.9233C4.25015 22.9084 4.26135 22.8936 4.2725 22.8789Z" fill="#A0A6B8"/>
<path fill-rule="evenodd" clip-rule="evenodd" d="M8.12482 9.375C8.12482 5.57804 11.2029 2.5 14.9998 2.5C18.7968 2.5 21.8748 5.57804 21.8748 9.375C21.8748 13.172 18.7968 16.25 14.9998 16.25C11.2029 16.25 8.12482 13.172 8.12482 9.375Z" fill="#A0A6B8"/>
</svg>
